<?xml version="1.0" encoding="UTF-8" standalone="no"?>
<svg
   xmlns:dc="http://purl.org/dc/elements/1.1/"
   xmlns:cc="http://creativecommons.org/ns#"
   xmlns:rdf="http://www.w3.org/1999/02/22-rdf-syntax-ns#"
   xmlns:svg="http://www.w3.org/2000/svg"
   xmlns="http://www.w3.org/2000/svg"
   id="svg8"
   version="1.1"
   viewBox="0 0 210 297"
   height="297mm"
   width="210mm">
  <defs
     id="defs2" />
  <metadata
     id="metadata5">
    <rdf:RDF>
      <cc:Work
         rdf:about="">
        <dc:format>image/svg+xml</dc:format>
        <dc:type
           rdf:resource="http://purl.org/dc/dcmitype/StillImage" />
        <dc:title></dc:title>
      </cc:Work>
    </rdf:RDF>
  </metadata>
  <g
     id="layer1">
    <path
       id="path21"
       d="m 108.20515,164.04566 c -0.49066,-0.35083 -0.59532,-0.67553 -0.59532,-1.84697 0,-1.8393 0.45331,-2.33321 2.02656,-2.20808 l 1.14844,0.0913 v -0.9941 c 0,-1.04994 0.51147,-1.41809 0.55402,-0.39878 0.0137,0.32742 0.10297,1.68957 0.19844,3.02698 l 0.17359,2.43168 -0.66146,-0.022 c -0.36381,-0.0121 -1.01865,0.0607 -1.45521,0.1618 -0.54778,0.12681 -0.97823,0.0519 -1.38906,-0.24191 z m 2.02724,-0.42719 c 0.57617,-0.20085 0.80167,-0.42061 0.70094,-0.68309 -0.0817,-0.21284 -0.1485,-0.86034 -0.1485,-1.43889 v -1.05191 l -1.12448,0.0814 -1.12448,0.0814 -0.0814,1.43017 c -0.10477,1.84066 0.21567,2.1256 1.77791,1.581 z m -7.2718,-2.15127 c 0.20205,-3.02041 0.32516,-3.63803 0.72518,-3.63803 0.17872,0 0.2153,0.66524 0.10547,1.91823 -0.30699,3.50242 -0.4618,4.43177 -0.73823,4.43177 -0.18272,0 -0.21348,-0.90241 -0.0924,-2.71197 z m 10.7674,2.08997 c -0.16315,-0.19658 -0.36861,-0.88259 -0.45659,-1.52445 -0.20236,-1.47638 0.38927,-2.29847 1.8189,-2.52739 1.21191,-0.19406 2.04453,0.41911 2.04453,1.50568 0,0.6819 -0.081,0.72773 -1.5875,0.89817 -1.59142,0.18005 -1.93511,0.49363 -1.27,1.15874 0.38385,0.38385 1.51764,0.41144 2.4434,0.0595 0.44809,-0.17036 0.67869,-0.16814 0.67869,0.007 0,0.71333 -3.13111,1.07427 -3.67143,0.42323 z m 2.81206,-2.39918 c 0.0597,-0.0597 -0.0244,-0.35682 -0.18684,-0.66032 -0.5126,-0.9578 -2.39338,-0.5242 -2.39338,0.55178 0,0.50955 0.10288,0.54172 1.23586,0.38642 0.67973,-0.0932 1.28469,-0.21821 1.34436,-0.27788 z m -18.636361,2.22559 c -0.89792,-0.36178 -1.14473,-1.05758 -0.84628,-2.38587 0.34135,-1.51922 0.64356,-1.84562 1.70883,-1.84562 1.138707,0 2.151271,0.46788 2.307781,1.06638 0.20984,0.80245 -0.26536,2.72015 -0.7645,3.08513 -0.535754,0.39175 -1.548471,0.42542 -2.405831,0.08 z m 2.013627,-0.636 c 0.488244,-0.58829 0.662534,-2.21356 0.286044,-2.66721 -0.417574,-0.50314 -1.689811,-0.51881 -2.098931,-0.0259 -0.17038,0.2053 -0.38203,0.81846 -0.47033,1.36259 -0.12635,0.77861 -0.0565,1.06541 0.32795,1.34653 0.63433,0.46383 1.56333,0.45619 1.955267,-0.0161 z m 21.482064,-0.84985 c -0.74802,-2.82223 -0.79908,-3.30895 -0.3371,-3.21364 0.241,0.0497 0.56979,-0.0821 0.73065,-0.29296 0.18964,-0.24857 0.4687,-0.31241 0.79375,-0.18157 0.46976,0.1891 0.46348,0.21635 -0.0999,0.43351 -0.83617,0.3223 -0.95885,0.82126 -0.58505,2.37942 0.22503,0.93804 0.23912,1.4315 0.0464,1.62423 -0.19274,0.19274 -0.35945,-0.0348 -0.54874,-0.74899 z m -28.606211,0.24672 c -0.50933,-0.23459 -1.1511,-0.39821 -1.42617,-0.3636 -0.33887,0.0426 -0.45322,-0.0593 -0.35465,-0.31619 0.08,-0.2085 0.51954,-1.59128 0.97674,-3.07284 0.47527,-1.54017 0.94335,-2.62447 1.09301,-2.53197 0.14397,0.089 0.20683,0.36011 0.1397,0.60253 -0.0671,0.24241 -0.19907,0.70864 -0.29318,1.03607 -0.15394,0.53554 -0.0793,0.59531 0.74345,0.59531 0.503,0 1.18847,0.2218 1.52326,0.49289 0.58649,0.47492 0.5964,0.54785 0.27155,1.99942 -0.26878,1.20105 -0.47023,1.55712 -0.99349,1.75606 -0.36099,0.13725 -0.67835,0.24489 -0.70526,0.23919 -0.0269,-0.006 -0.46564,-0.20229 -0.97496,-0.43687 z m 1.78869,-0.89659 c 0.18342,-0.35231 0.30248,-1.05728 0.26459,-1.5666 -0.0659,-0.88524 -0.11774,-0.92959 -1.17697,-1.0066 -1.08002,-0.0785 -1.11514,-0.0551 -1.38759,0.92604 -0.41268,1.48613 -0.36468,1.65793 0.57742,2.06676 1.05386,0.45733 1.29682,0.39814 1.72255,-0.4196 z m 30.331351,-0.37979 c -0.59654,-0.91044 -0.79628,-2.84346 -0.33203,-3.21326 0.19738,-0.15721 0.79951,-0.42773 1.33809,-0.60115 1.34635,-0.43351 1.95921,-0.0515 2.4213,1.50907 0.44722,1.51038 0.22427,2.0712 -1.03208,2.59614 -1.28992,0.53896 -1.90014,0.46487 -2.39528,-0.2908 z m 2.56332,-0.35844 c 0.57077,-0.46218 0.58939,-0.56577 0.28456,-1.58318 -0.41454,-1.38363 -0.96438,-1.69453 -2.13002,-1.20442 -0.81207,0.34145 -0.87441,0.44698 -0.72004,1.21884 0.38431,1.92155 1.37882,2.52968 2.5655,1.56876 z m -40.417221,-0.15574 c -1.1454,-0.49824 -1.47607,-1.18184 -1.11264,-2.30017 0.41912,-1.28969 1.41453,-2.11858 2.29839,-1.9139 1.35883,0.31469 1.90227,0.8392 1.90227,1.83605 0,1.19289 -0.39923,1.32653 -1.96186,0.65671 -1.35045,-0.57888 -1.7423,-0.52532 -1.7423,0.23815 0,0.65589 0.5626,1.07087 1.7026,1.25587 0.52585,0.0853 1.01975,0.25816 1.09756,0.38407 0.21964,0.35538 -1.24898,0.24996 -2.18402,-0.15678 z m 2.55886,-2.53354 c 0,-0.71851 -1.42138,-1.42162 -2.11906,-1.04823 -0.82804,0.44316 -0.62271,0.9121 0.5977,1.36503 1.26232,0.46849 1.52136,0.41455 1.52136,-0.3168 z m 39.974681,-0.82386 c -0.6648,-1.60955 -1.01264,-2.78103 -0.86853,-2.92513 0.1441,-0.14411 0.37543,0.0857 0.5776,0.57377 0.46037,1.11142 0.66512,1.18109 1.54955,0.5272 1.13956,-0.84251 1.91013,-0.60533 2.66294,0.81963 0.42947,0.81293 0.58232,1.42282 0.46936,1.87287 -0.17195,0.68513 -1.1284,1.28726 -2.04472,1.28726 -0.28419,0 -0.51672,0.11906 -0.51672,0.26458 0,0.14553 -0.16213,0.26459 -0.36029,0.26459 -0.20748,0 -0.83063,-1.13872 -1.46919,-2.68477 z m 3.06181,1.50506 c 0.83847,-0.23993 0.9455,-0.83815 0.35652,-1.99265 -0.67557,-1.32424 -0.88252,-1.43076 -1.82888,-0.94138 -1.10657,0.57223 -1.15003,0.73821 -0.55611,2.12378 0.39989,0.93291 0.64149,1.20131 0.99303,1.10323 0.25552,-0.0713 0.72146,-0.20313 1.03544,-0.29298 z m -49.947941,-0.11614 -0.62006,-0.5021 0.75729,-1.58443 c 0.41651,-0.87143 0.67532,-1.71705 0.57513,-1.87915 -0.1019,-0.16489 -0.0129,-0.29472 0.20204,-0.29472 0.2113,0 0.45561,-0.18614 0.54291,-0.41365 0.22029,-0.57405 0.67208,-0.23019 0.51032,0.3884 -0.0908,0.34722 0.04,0.55789 0.42171,0.67903 0.30435,0.0966 0.55336,0.28667 0.55336,0.42238 0,0.31637 -0.17898,0.31119 -0.80393,-0.0233 -0.43966,-0.2353 -0.59289,-0.0957 -1.19126,1.08512 -0.74532,1.47081 -0.70514,2.09533 0.1348,2.09533 0.29561,0 0.53747,0.11906 0.53747,0.26458 0,0.43857 -0.9584,0.29803 -1.61978,-0.23751 z m -2.961,-1.71345 c -0.0767,-0.19991 -0.56228,-0.44279 -1.07903,-0.53973 -0.51676,-0.097 -1.11765,-0.43051 -1.33531,-0.74126 -0.36069,-0.51497 -0.33678,-0.6722 0.27003,-1.77538 0.98458,-1.78999 1.39774,-2.2782 1.684,-1.9899 0.15542,0.15653 -0.0929,0.79118 -0.66245,1.69331 -0.50108,0.79362 -0.91104,1.54384 -0.91104,1.66714 0,0.21342 1.60585,0.99198 2.04202,0.99003 0.11381,-5.3e-4 0.56058,-0.65654 0.99282,-1.45783 0.684,-1.26803 1.23177,-1.75463 1.24109,-1.10252 0.005,0.33487 -1.74833,3.61757 -1.93252,3.61863 -0.0936,5.2e-4 -0.2329,-0.16259 -0.30961,-0.36249 z m 55.635991,-0.76101 c -1.09624,-1.77603 -1.0205,-2.5468 0.33122,-3.37094 1.2433,-0.75803 1.92732,-0.67389 2.66827,0.32823 1.25273,1.69429 1.20721,2.49632 -0.19074,3.3603 -1.30897,0.80899 -2.17373,0.71121 -2.80875,-0.31759 z m 2.40376,-0.0729 c 0.93861,-0.48538 0.98387,-1.06855 0.176,-2.26735 -0.75887,-1.12608 -1.25812,-1.22619 -2.1763,-0.43641 -0.7249,0.62354 -0.72501,0.62417 -0.26199,1.53488 0.88072,1.7323 1.0268,1.80778 2.26229,1.16888 z m -35.20272,-0.94898 c -6.476971,-0.72457 -13.362091,-2.9522 -18.874521,-6.10672 -12.17169,-6.96532 -20.66266,-18.71734 -23.65641,-32.7419 -0.64732,-3.03247 -0.71012,-3.84278 -0.71886,-9.27586 -0.007,-4.65765 0.0942,-6.50154 0.46717,-8.473265 0.26222,-1.38609 0.58048,-2.68798 0.70725,-2.8931 0.18465,-0.29877 1.82665,0.37735 8.2545,3.39889 4.41319,2.074515 8.11498,3.860305 8.22619,3.968425 0.11121,0.10811 -1.40684,2.98511 -3.37344,6.39333 -1.9666,3.40822 -3.57563,6.28784 -3.57563,6.39916 0,0.11131 2.0368,0.20239 4.52622,0.20239 4.01685,0 4.50817,0.0471 4.36578,0.41813 -0.0883,0.22997 -1.05349,1.95441 -2.14498,3.83209 -1.09149,1.87768 -1.98452,3.53499 -1.98452,3.68291 0,0.17175 1.69742,0.27252 4.69635,0.2788 l 4.69636,0.01 2.29117,4.02505 2.29119,4.02506 4.78642,0.0721 c 2.63254,0.0397 4.78643,-0.0134 4.78643,-0.11792 0,-0.10452 -1.0418,-2.0106 -2.31511,-4.23573 l -2.3151,-4.04568 -4.68305,-0.004 -4.68306,-0.004 2.23566,-3.85171 c 1.22961,-2.11844 2.23566,-3.96391 2.23566,-4.10104 0,-0.14633 -1.86978,-0.24933 -4.52623,-0.24933 -3.51502,0 -4.49672,-0.0739 -4.39416,-0.33073 0.0726,-0.1819 1.09534,-1.99126 2.27268,-4.0208 l 2.14063,-3.69008 -0.55812,-0.94013 c -0.30697,-0.51708 -1.38076,-2.38094 -2.38619,-4.14193 l -1.82806,-3.201795 2.38512,-4.07424 c 1.31181,-2.24084 3.36992,-5.76906 4.57357,-7.84049 1.20366,-2.07143 2.25919,-3.76807 2.34564,-3.77031 0.0865,-0.002 2.15741,3.4785 4.60215,7.73499 2.44474,4.25648 4.59518,7.91766 4.77876,8.13594 0.18357,0.21828 1.33967,2.133395 2.569101,4.255825 l 2.23533,3.85896 -1.83281,3.1525 c -1.00805,1.73388 -2.072461,3.57819 -2.365361,4.09847 l -0.53254,0.94597 4.687601,8.04986 c 2.57818,4.42743 4.70244,8.07037 4.72057,8.09544 0.0181,0.025 1.07856,-1.76088 2.3565,-3.96875 1.27795,-2.20788 3.39399,-5.8543 4.70232,-8.10316 l 2.37879,-4.08884 -2.29577,-3.98095 c -1.26268,-2.18953 -2.29284,-4.10002 -2.28925,-4.24554 0.008,-0.3105 3.35662,-6.11392 4.96218,-8.598955 0.61113,-0.94588 2.87182,-4.78565 5.02375,-8.53281 2.15193,-3.74717 3.9866,-6.81123 4.07705,-6.80904 0.0905,0.002 1.92172,3.06804 4.06949,6.81302 2.14776,3.74497 4.19633,7.29492 4.55238,7.88878 l 0.64735,1.07974 -1.5218,2.624425 c -0.83698,1.44343 -1.89857,3.28551 -2.35907,4.09351 l -0.83729,1.46908 2.23847,3.92065 c 1.23116,2.15636 2.23847,3.96582 2.23847,4.02102 0,0.0552 -2.02407,0.10037 -4.49792,0.10037 -3.02801,0 -4.49792,0.0928 -4.49792,0.28408 0,0.15624 0.89405,1.8162 1.98678,3.68879 1.09273,1.87259 2.05797,3.59022 2.14498,3.81696 0.13949,0.36353 -0.38471,0.41225 -4.43495,0.41225 h -4.59313 l -2.31434,4.03883 c -1.27288,2.22135 -2.31434,4.12635 -2.31434,4.23333 0,0.10698 2.13311,0.19451 4.74024,0.19451 h 4.74024 l 2.33737,-4.09416 2.33736,-4.09415 4.69636,-0.007 c 2.75806,-0.004 4.69635,-0.10979 4.69635,-0.25621 0,-0.13713 -1.00604,-1.9826 -2.23566,-4.10105 l -2.23565,-3.85172 h 4.64521 c 4.05093,0 4.62544,-0.0515 4.49063,-0.40283 -0.085,-0.22156 -1.7099,-3.09808 -3.61084,-6.39226 -1.90094,-3.29418 -3.36217,-6.08267 -3.24716,-6.19665 0.115,-0.11398 3.86208,-1.92507 8.32683,-4.024645 l 8.11774,-3.81742 0.27502,1.22264 c 0.68607,3.04996 0.87415,4.688995 1.01026,8.804075 0.27436,8.29487 -1.24569,15.51514 -4.8096,22.84564 -7.27223,14.95802 -22.02086,25.29616 -38.64032,27.08515 -1.16417,0.12532 -2.20597,0.17735 -2.31511,0.11563 -0.10914,-0.0617 -0.19932,-2.57574 -0.2004,-5.58671 l -0.002,-5.47449 -1.20676,2.11271 c -0.66371,1.162 -1.24571,2.15167 -1.29332,2.19929 -0.0476,0.0476 -0.60502,-0.84358 -1.23868,-1.98042 l -1.15222,-2.067 -0.13229,5.40225 c -0.0804,3.28368 -0.23605,5.42253 -0.39687,5.45396 -0.14552,0.0284 -1.15755,-0.0482 -2.24896,-0.17027 z m 38.36727,-1.1984 c 0.002,-0.12492 0.47773,-0.42664 1.05834,-0.67049 0.73524,-0.30881 1.05564,-0.60521 1.05564,-0.97658 0,-0.8161 -0.47218,-0.93507 -1.63323,-0.41151 -1.2407,0.55948 -1.89207,0.31438 -2.02097,-0.76045 -0.0662,-0.55229 0.12874,-0.82614 0.99757,-1.4011 0.59394,-0.39305 1.16676,-0.62372 1.27295,-0.51259 0.10618,0.11112 -0.0294,0.3369 -0.30133,0.50173 -0.27192,0.16484 -0.74817,0.50038 -1.05834,0.74566 -0.51732,0.40908 -0.52898,0.48154 -0.14098,0.87653 0.39041,0.39744 0.50826,0.38611 1.53137,-0.14717 1.06445,-0.55481 1.12901,-0.5591 1.62757,-0.10791 0.71053,0.64302 0.65141,1.22132 -0.20846,2.03922 -0.73292,0.69714 -2.18512,1.24645 -2.18013,0.82466 z m -68.366821,-1.63272 c -0.13121,-0.2123 2.89932,-4.28294 3.18858,-4.28294 0.31188,0 2.73389,1.90899 2.73389,2.15481 0,0.29849 -0.31428,0.1409 -1.56255,-0.78352 l -0.9011,-0.66732 -0.62026,0.72111 c -0.34114,0.3966 -0.62026,0.81817 -0.62026,0.93682 0,0.11865 0.4159,0.49896 0.92423,0.84514 0.87991,0.59923 1.1773,1.02629 0.71467,1.02629 -0.11725,0 -0.62326,-0.30443 -1.12448,-0.67651 l -0.9113,-0.67652 -0.68072,0.80881 c -0.71045,0.84411 -0.91894,0.95265 -1.1407,0.59383 z m 61.734311,-0.64492 c 0.15815,-0.74513 0.28294,-0.85248 0.93501,-0.80428 1.10533,0.0817 1.51533,0.60584 0.47389,0.60584 -0.59646,0 -0.87592,0.14836 -0.99679,0.52917 -0.27535,0.86756 -0.60952,0.59938 -0.41211,-0.33073 z M 105.74143,95.986625 c -1.07006,-1.85748 -2.21283,-3.87886 -2.53949,-4.49196 -0.5915,-1.11016 -11.244031,-19.75043 -13.242781,-23.172805 -0.7922,-1.35644 -1.11639,-1.71377 -1.32024,-1.45521 -0.14862,0.1885 -2.80354,4.748045 -5.89984,10.132315 -3.09629,5.38427 -6.1988,10.75918 -6.89446,11.94423 l -1.26484,2.15465 1.72005,2.96099 c 0.94603,1.62854 1.67749,3.00355 1.62546,3.05558 -0.052,0.052 -3.623,-1.58067 -7.93549,-3.62821 l -7.84088,-3.72282 0.34369,-0.95825 c 3.18695,-8.88566 10.90625,-18.12236 19.72757,-23.605455 6.02751,-3.74654 14.28581,-6.52422 20.917571,-7.03562 l 2.09083,-0.16124 v 12.474635 12.47464 h 2.51355 2.51354 V 70.477455 58.00282 l 2.09083,0.16124 c 3.03056,0.2337 7.10817,1.11612 10.73086,2.32222 7.73358,2.57474 13.67304,6.33231 19.46379,12.313675 3.22003,3.32602 4.9116,5.52366 7.10057,9.22482 1.46091,2.47015 3.33219,6.39545 3.52447,7.39317 0.0651,0.33777 -1.69015,1.2729 -7.717,4.11133 -4.29069,2.02076 -7.84236,3.63302 -7.89259,3.58278 -0.0502,-0.0502 0.6326,-1.3455 1.51741,-2.87837 0.88481,-1.53288 1.60874,-2.93248 1.60874,-3.11023 0,-0.33658 -13.34873,-23.667415 -13.86933,-24.240725 -0.29162,-0.32115 -0.78386,0.50075 -11.52544,19.244365 -1.12583,1.96453 -2.43789,4.28625 -2.91569,5.15938 -1.24696,2.27867 -3.99093,7.06159 -4.3662,7.61056 -0.27879,0.40785 -0.56486,0.0402 -2.26466,-2.91041 z M 122.38021,57.68219 c -0.074,-0.074 0.35092,-1.91943 0.94419,-4.10104 0.87196,-3.20647 1.16813,-3.96656 1.54559,-3.96656 0.25681,0 0.4676,0.14883 0.46843,0.33073 7.9e-4,0.1819 -0.49363,2.02737 -1.0988,4.10104 -0.97679,3.34711 -1.37313,4.1221 -1.85941,3.63583 z M 92.471299,56.82448 c -0.60482,-0.69338 -0.85692,-1.3064 -1.52844,-3.71674 -0.4617,-1.65723 -0.53688,-2.27013 -0.30671,-2.50031 0.46237,-0.46236 0.71951,-0.027 1.34235,2.27295 0.30909,1.14135 0.74834,2.43555 0.97611,2.876 0.38159,0.73792 0.49829,0.78954 1.48566,0.6571 1.85334,-0.24858 1.96259,-0.53243 1.41316,-3.6716 -0.26103,-1.49141 -0.53334,-2.86471 -0.60512,-3.05177 -0.08,-0.20858 0.0782,-0.34011 0.40914,-0.34011 0.61982,0 0.66844,0.12653 1.23576,3.21613 0.49773,2.71056 0.34794,3.53982 -0.76161,4.21639 -1.07684,0.65664 -3.10387,0.67988 -3.6603,0.042 z m 26.737491,0.0675 c -0.072,-0.072 0.23558,-1.91745 0.6835,-4.10102 0.75478,-3.67938 0.85741,-3.97011 1.40143,-3.97013 0.35135,-1e-5 0.54325,0.13275 0.47801,0.33071 -0.14483,0.43948 -1.72648,7.5023 -1.72648,7.70957 0,0.19329 -0.65005,0.21729 -0.83646,0.0309 z m -3.01897,-0.74918 c -0.11927,-0.3108 -0.33064,-0.34291 -0.99233,-0.15075 -1.08182,0.31418 -2.22884,0.0632 -2.56277,-0.56077 -0.44054,-0.82314 -0.30206,-2.07288 0.29593,-2.67088 0.55959,-0.55958 1.2449,-0.5757 3.0797,-0.0724 0.47979,0.13161 0.59532,0.0558 0.59532,-0.39063 0,-0.84302 -1.13472,-1.45479 -2.38684,-1.28685 -0.90825,0.12182 -1.05275,0.072 -1.05275,-0.36279 0,-0.42906 0.19864,-0.50399 1.33606,-0.50399 1.58761,0 2.83785,0.57626 3.02417,1.39388 0.19876,0.87219 -0.48808,4.76784 -0.86262,4.89269 -0.17728,0.0591 -0.39053,-0.0703 -0.47387,-0.28749 z m -0.16624,-1.28949 c 0.64146,-0.64146 0.35221,-1.19683 -0.77193,-1.48216 -1.44915,-0.36784 -1.82098,-0.18367 -1.82098,0.90192 0,0.88141 0.0207,0.89774 1.1377,0.89774 0.62574,0 1.28059,-0.14288 1.45521,-0.3175 z M 99.161109,53.91404 c -0.18251,-1.27331 -0.39749,-2.60017 -0.47773,-2.94858 -0.13208,-0.57345 -0.076,-0.62011 0.5919,-0.49243 0.405787,0.0776 1.149711,-0.0311 1.653171,-0.24143 0.52682,-0.22012 1.23444,-0.31238 1.66707,-0.21736 0.92305,0.20273 1.23549,1.06286 1.36634,3.76139 0.0715,1.47395 0.006,1.94526 -0.28419,2.05675 -0.53782,0.20638 -0.56318,0.14028 -0.7214,-1.88068 -0.21842,-2.78988 -0.2949,-3.01423 -1.02757,-3.01423 -0.35418,0 -0.95795,0.14306 -1.3417,0.31791 -0.666264,0.30357 -0.690064,0.38411 -0.52763,1.78594 0.0936,0.80742 0.2366,1.85498 0.31786,2.32793 0.12486,0.7267 0.0678,0.85989 -0.36826,0.85989 -0.447031,0 -0.560381,-0.3095 -0.847861,-2.3151 z m 6.760211,-1.83093 c -0.14124,-2.81432 -0.10614,-3.66468 0.15819,-3.8324 0.52223,-0.33137 3.17183,-0.25579 3.89068,0.11098 0.91961,0.4692 1.22172,1.57409 0.71057,2.59871 -0.3616,0.72485 -0.3641,0.86961 -0.021,1.21274 0.62372,0.62372 0.48774,2.12987 -0.2598,2.8774 -0.5639,0.56391 -0.88962,0.64943 -2.47329,0.64943 h -1.82386 z m 3.55799,2.54922 c 0.58003,-0.31042 0.69737,-1.55134 0.19427,-2.05444 -0.17462,-0.17462 -0.82947,-0.3175 -1.45521,-0.3175 h -1.1377 v 1.32292 1.32291 h 0.94343 c 0.51889,0 1.17374,-0.12325 1.45521,-0.27389 z m -0.0703,-3.48319 c 0.17463,-0.17462 0.3175,-0.69652 0.3175,-1.15977 0,-0.86627 -0.43804,-1.16196 -1.71979,-1.1609 -1.00435,8.2e-4 -1.26184,0.37528 -1.06387,1.5471 0.17728,1.04932 0.22192,1.09107 1.1665,1.09107 0.54019,0 1.12503,-0.14287 1.29966,-0.3175 z"
       style="fill:#000000;stroke-width:0.26458332" />
  </g>
</svg>
